<?xml version="1.0" encoding="us-ascii" standalone="no"?><svg xmlns="http://www.w3.org/2000/svg" xmlns:xlink="http://www.w3.org/1999/xlink" contentStyleType="text/css" height="230px" preserveAspectRatio="none" style="width:297px;height:230px;background:#FFFFFF;" version="1.1" viewBox="0 0 297 230" width="297.2px" zoomAndPan="magnify"><defs/><g><!--class StateMachine--><g id="elem_StateMachine"><rect codeLine="10" fill="#F1F1F1" height="48.9938" id="StateMachine" rx="1" ry="1" style="stroke:#181818;stroke-width:0.20000000000000004;" width="93.6" x="53.696" y="156"/><ellipse cx="59.696" cy="162.4" fill="#ADD1B2" rx="4.4" ry="4.4" style="stroke:#181818;stroke-width:0.4000000000000001;"/><path d="M60.8023,160.75 Q60.8648,160.6625 60.9398,160.6188 Q61.0148,160.575 61.1023,160.575 Q61.2523,160.575 61.346,160.6813 Q61.4398,160.7813 61.4398,161.025 L61.4398,161.6063 Q61.4398,161.85 61.346,161.9563 Q61.2523,162.0625 61.1023,162.0625 Q60.9648,162.0625 60.8835,161.9813 Q60.8023,161.9063 60.7585,161.7 Q60.7398,161.5563 60.6648,161.4813 Q60.5335,161.3313 60.2898,161.2438 Q60.046,161.1563 59.796,161.1563 Q59.4898,161.1563 59.2335,161.2875 Q58.9835,161.4188 58.7835,161.7188 Q58.5898,162.0188 58.5898,162.4313 L58.5898,162.8688 Q58.5898,163.3625 58.946,163.6938 Q59.3023,164.0188 59.9398,164.0188 Q60.3148,164.0188 60.5773,163.9188 Q60.7335,163.8563 60.9023,163.6813 Q61.0085,163.575 61.0648,163.5438 Q61.1273,163.5125 61.2085,163.5125 Q61.3398,163.5125 61.4398,163.6188 Q61.546,163.7188 61.546,163.8563 Q61.546,163.9938 61.4085,164.1563 Q61.2085,164.3875 60.8898,164.5188 Q60.4585,164.7 59.9398,164.7 Q59.3335,164.7 58.8523,164.45 Q58.4585,164.25 58.1835,163.825 Q57.9085,163.3938 57.9085,162.8813 L57.9085,162.4188 Q57.9085,161.8875 58.1523,161.4313 Q58.4023,160.9688 58.8398,160.725 Q59.2773,160.475 59.771,160.475 Q60.0648,160.475 60.321,160.5438 Q60.5835,160.6063 60.8023,160.75 Z " fill="#000000"/><text fill="#000000" font-family="sans-serif" font-size="5.6" lengthAdjust="spacing" textLength="34.4" x="65.296" y="164.7188">StateMachine</text><rect fill="#FFFFFF" height="7.1844" style="stroke:#181818;stroke-width:0.4000000000000001;stroke-dasharray:2.0,2.0;" width="45.6" x="102.896" y="154.8"/><text fill="#000000" font-family="sans-serif" font-size="4.8" font-style="italic" lengthAdjust="spacing" textLength="44.8" x="103.296" y="160.3797">? extends BaseState</text><line style="stroke:#181818;stroke-width:0.20000000000000004;" x1="54.096" x2="146.896" y1="168.8" y2="168.8"/><text fill="#000000" font-family="sans-serif" font-size="5.6" lengthAdjust="spacing" textLength="35.2" x="56.096" y="176.443">PreviousState</text><text fill="#000000" font-family="sans-serif" font-size="5.6" lengthAdjust="spacing" textLength="32.4" x="56.096" y="183.8914">CurrentState</text><line style="stroke:#181818;stroke-width:0.20000000000000004;" x1="54.096" x2="146.896" y1="186.8969" y2="186.8969"/><text fill="#000000" font-family="sans-serif" font-size="5.6" lengthAdjust="spacing" textLength="23.6" x="56.096" y="194.5398">Initialize()</text><text fill="#000000" font-family="sans-serif" font-size="5.6" lengthAdjust="spacing" textLength="37.2" x="56.096" y="201.9883">ChangeState()</text></g><!--class BaseState--><g id="elem_BaseState"><rect codeLine="17" fill="#F1F1F1" height="48.9938" id="BaseState" rx="1" ry="1" style="stroke:#181818;stroke-width:0.20000000000000004;" width="40.4" x="80.296" y="2.8"/><ellipse cx="87.016" cy="9.2" fill="#ADD1B2" rx="4.4" ry="4.4" style="stroke:#181818;stroke-width:0.4000000000000001;"/><path d="M88.1223,7.55 Q88.1848,7.4625 88.2598,7.4188 Q88.3348,7.375 88.4223,7.375 Q88.5723,7.375 88.666,7.4813 Q88.7598,7.5813 88.7598,7.825 L88.7598,8.4063 Q88.7598,8.65 88.666,8.7563 Q88.5723,8.8625 88.4223,8.8625 Q88.2848,8.8625 88.2035,8.7813 Q88.1223,8.7063 88.0785,8.5 Q88.0598,8.3563 87.9848,8.2813 Q87.8535,8.1313 87.6098,8.0438 Q87.366,7.9563 87.116,7.9563 Q86.8098,7.9563 86.5535,8.0875 Q86.3035,8.2188 86.1035,8.5188 Q85.9098,8.8188 85.9098,9.2313 L85.9098,9.6688 Q85.9098,10.1625 86.266,10.4938 Q86.6223,10.8188 87.2598,10.8188 Q87.6348,10.8188 87.8973,10.7188 Q88.0535,10.6563 88.2223,10.4813 Q88.3285,10.375 88.3848,10.3438 Q88.4473,10.3125 88.5285,10.3125 Q88.6598,10.3125 88.7598,10.4188 Q88.866,10.5188 88.866,10.6563 Q88.866,10.7938 88.7285,10.9563 Q88.5285,11.1875 88.2098,11.3188 Q87.7785,11.5 87.2598,11.5 Q86.6535,11.5 86.1723,11.25 Q85.7785,11.05 85.5035,10.625 Q85.2285,10.1938 85.2285,9.6813 L85.2285,9.2188 Q85.2285,8.6875 85.4723,8.2313 Q85.7223,7.7688 86.1598,7.525 Q86.5973,7.275 87.091,7.275 Q87.3848,7.275 87.641,7.3438 Q87.9035,7.4063 88.1223,7.55 Z " fill="#000000"/><text fill="#000000" font-family="sans-serif" font-size="5.6" lengthAdjust="spacing" textLength="26" x="92.776" y="11.5188">BaseState</text><line style="stroke:#181818;stroke-width:0.20000000000000004;" x1="80.696" x2="120.296" y1="15.6" y2="15.6"/><line style="stroke:#181818;stroke-width:0.20000000000000004;" x1="80.696" x2="120.296" y1="18.8" y2="18.8"/><text fill="#000000" font-family="sans-serif" font-size="5.6" lengthAdjust="spacing" textLength="30.8" x="82.696" y="26.443">EnterState()</text><text fill="#000000" font-family="sans-serif" font-size="5.6" lengthAdjust="spacing" textLength="26" x="82.696" y="33.8914">ExitState()</text><text fill="#000000" font-family="sans-serif" font-size="5.6" lengthAdjust="spacing" textLength="22" x="82.696" y="41.3398">Update()</text><text fill="#000000" font-family="sans-serif" font-size="5.6" lengthAdjust="spacing" textLength="35.6" x="82.696" y="48.7883">FixedUpdate()</text></g><!--class PlayerActionState--><g id="elem_PlayerActionState"><rect codeLine="23" fill="#F1F1F1" height="34.0969" id="PlayerActionState" rx="1" ry="1" style="stroke:#181818;stroke-width:0.20000000000000004;" width="57.6" x="26.496" y="75.6"/><ellipse cx="32.496" cy="82" fill="#ADD1B2" rx="4.4" ry="4.4" style="stroke:#181818;stroke-width:0.4000000000000001;"/><path d="M33.6023,80.35 Q33.6648,80.2625 33.7398,80.2188 Q33.8148,80.175 33.9023,80.175 Q34.0523,80.175 34.146,80.2813 Q34.2398,80.3813 34.2398,80.625 L34.2398,81.2063 Q34.2398,81.45 34.146,81.5563 Q34.0523,81.6625 33.9023,81.6625 Q33.7648,81.6625 33.6835,81.5813 Q33.6023,81.5063 33.5585,81.3 Q33.5398,81.1563 33.4648,81.0813 Q33.3335,80.9313 33.0898,80.8438 Q32.846,80.7563 32.596,80.7563 Q32.2898,80.7563 32.0335,80.8875 Q31.7835,81.0188 31.5835,81.3188 Q31.3898,81.6188 31.3898,82.0313 L31.3898,82.4688 Q31.3898,82.9625 31.746,83.2938 Q32.1023,83.6188 32.7398,83.6188 Q33.1148,83.6188 33.3773,83.5188 Q33.5335,83.4563 33.7023,83.2813 Q33.8085,83.175 33.8648,83.1438 Q33.9273,83.1125 34.0085,83.1125 Q34.1398,83.1125 34.2398,83.2188 Q34.346,83.3188 34.346,83.4563 Q34.346,83.5938 34.2085,83.7563 Q34.0085,83.9875 33.6898,84.1188 Q33.2585,84.3 32.7398,84.3 Q32.1335,84.3 31.6523,84.05 Q31.2585,83.85 30.9835,83.425 Q30.7085,82.9938 30.7085,82.4813 L30.7085,82.0188 Q30.7085,81.4875 30.9523,81.0313 Q31.2023,80.5688 31.6398,80.325 Q32.0773,80.075 32.571,80.075 Q32.8648,80.075 33.121,80.1438 Q33.3835,80.2063 33.6023,80.35 Z " fill="#000000"/><text fill="#000000" font-family="sans-serif" font-size="5.6" lengthAdjust="spacing" textLength="44.8" x="38.096" y="84.3188">PlayerActionState</text><line style="stroke:#181818;stroke-width:0.20000000000000004;" x1="26.896" x2="83.696" y1="88.4" y2="88.4"/><text fill="#000000" font-family="sans-serif" font-size="5.6" lengthAdjust="spacing" textLength="16" x="28.896" y="96.043">Player</text><text fill="#000000" font-family="sans-serif" font-size="5.6" lengthAdjust="spacing" textLength="34.4" x="28.896" y="103.4914">StateMachine</text><line style="stroke:#181818;stroke-width:0.20000000000000004;" x1="26.896" x2="83.696" y1="106.4969" y2="106.4969"/></g><!--class PlayerPrimaryMovementState--><g id="elem_PlayerPrimaryMovementState"><rect codeLine="28" fill="#F1F1F1" height="34.0969" id="PlayerPrimaryMovementState" rx="1" ry="1" style="stroke:#181818;stroke-width:0.20000000000000004;" width="87.2" x="207.296" y="75.6"/><ellipse cx="213.296" cy="82" fill="#ADD1B2" rx="4.4" ry="4.4" style="stroke:#181818;stroke-width:0.4000000000000001;"/><path d="M214.4023,80.35 Q214.4648,80.2625 214.5398,80.2188 Q214.6148,80.175 214.7023,80.175 Q214.8523,80.175 214.946,80.2813 Q215.0398,80.3813 215.0398,80.625 L215.0398,81.2063 Q215.0398,81.45 214.946,81.5563 Q214.8523,81.6625 214.7023,81.6625 Q214.5648,81.6625 214.4835,81.5813 Q214.4023,81.5063 214.3585,81.3 Q214.3398,81.1563 214.2648,81.0813 Q214.1335,80.9313 213.8898,80.8438 Q213.646,80.7563 213.396,80.7563 Q213.0898,80.7563 212.8335,80.8875 Q212.5835,81.0188 212.3835,81.3188 Q212.1898,81.6188 212.1898,82.0313 L212.1898,82.4688 Q212.1898,82.9625 212.546,83.2938 Q212.9023,83.6188 213.5398,83.6188 Q213.9148,83.6188 214.1773,83.5188 Q214.3335,83.4563 214.5023,83.2813 Q214.6085,83.175 214.6648,83.1438 Q214.7273,83.1125 214.8085,83.1125 Q214.9398,83.1125 215.0398,83.2188 Q215.146,83.3188 215.146,83.4563 Q215.146,83.5938 215.0085,83.7563 Q214.8085,83.9875 214.4898,84.1188 Q214.0585,84.3 213.5398,84.3 Q212.9335,84.3 212.4523,84.05 Q212.0585,83.85 211.7835,83.425 Q211.5085,82.9938 211.5085,82.4813 L211.5085,82.0188 Q211.5085,81.4875 211.7523,81.0313 Q212.0023,80.5688 212.4398,80.325 Q212.8773,80.075 213.371,80.075 Q213.6648,80.075 213.921,80.1438 Q214.1835,80.2063 214.4023,80.35 Z " fill="#000000"/><text fill="#000000" font-family="sans-serif" font-size="5.6" lengthAdjust="spacing" textLength="74.4" x="218.896" y="84.3188">PlayerPrimaryMovementState</text><line style="stroke:#181818;stroke-width:0.20000000000000004;" x1="207.696" x2="294.096" y1="88.4" y2="88.4"/><text fill="#000000" font-family="sans-serif" font-size="5.6" lengthAdjust="spacing" textLength="16" x="209.696" y="96.043">Player</text><text fill="#000000" font-family="sans-serif" font-size="5.6" lengthAdjust="spacing" textLength="34.4" x="209.696" y="103.4914">StateMachine</text><line style="stroke:#181818;stroke-width:0.20000000000000004;" x1="207.696" x2="294.096" y1="106.4969" y2="106.4969"/></g><!--class PlayerSecondaryMovementState--><g id="elem_PlayerSecondaryMovementState"><rect codeLine="34" fill="#F1F1F1" height="34.0969" id="PlayerSecondaryMovementState" rx="1" ry="1" style="stroke:#181818;stroke-width:0.20000000000000004;" width="95.2" x="98.096" y="75.6"/><ellipse cx="104.096" cy="82" fill="#ADD1B2" rx="4.4" ry="4.4" style="stroke:#181818;stroke-width:0.4000000000000001;"/><path d="M105.2023,80.35 Q105.2648,80.2625 105.3398,80.2188 Q105.4148,80.175 105.5023,80.175 Q105.6523,80.175 105.746,80.2813 Q105.8398,80.3813 105.8398,80.625 L105.8398,81.2063 Q105.8398,81.45 105.746,81.5563 Q105.6523,81.6625 105.5023,81.6625 Q105.3648,81.6625 105.2835,81.5813 Q105.2023,81.5063 105.1585,81.3 Q105.1398,81.1563 105.0648,81.0813 Q104.9335,80.9313 104.6898,80.8438 Q104.446,80.7563 104.196,80.7563 Q103.8898,80.7563 103.6335,80.8875 Q103.3835,81.0188 103.1835,81.3188 Q102.9898,81.6188 102.9898,82.0313 L102.9898,82.4688 Q102.9898,82.9625 103.346,83.2938 Q103.7023,83.6188 104.3398,83.6188 Q104.7148,83.6188 104.9773,83.5188 Q105.1335,83.4563 105.3023,83.2813 Q105.4085,83.175 105.4648,83.1438 Q105.5273,83.1125 105.6085,83.1125 Q105.7398,83.1125 105.8398,83.2188 Q105.946,83.3188 105.946,83.4563 Q105.946,83.5938 105.8085,83.7563 Q105.6085,83.9875 105.2898,84.1188 Q104.8585,84.3 104.3398,84.3 Q103.7335,84.3 103.2523,84.05 Q102.8585,83.85 102.5835,83.425 Q102.3085,82.9938 102.3085,82.4813 L102.3085,82.0188 Q102.3085,81.4875 102.5523,81.0313 Q102.8023,80.5688 103.2398,80.325 Q103.6773,80.075 104.171,80.075 Q104.4648,80.075 104.721,80.1438 Q104.9835,80.2063 105.2023,80.35 Z " fill="#000000"/><text fill="#000000" font-family="sans-serif" font-size="5.6" lengthAdjust="spacing" textLength="82.4" x="109.696" y="84.3188">PlayerSecondaryMovementState</text><line style="stroke:#181818;stroke-width:0.20000000000000004;" x1="98.496" x2="192.896" y1="88.4" y2="88.4"/><text fill="#000000" font-family="sans-serif" font-size="5.6" lengthAdjust="spacing" textLength="16" x="100.496" y="96.043">Player</text><text fill="#000000" font-family="sans-serif" font-size="5.6" lengthAdjust="spacing" textLength="34.4" x="100.496" y="103.4914">StateMachine</text><line style="stroke:#181818;stroke-width:0.20000000000000004;" x1="98.496" x2="192.896" y1="106.4969" y2="106.4969"/></g><!--class PlayerMoveState--><g id="elem_PlayerMoveState"><rect codeLine="47" fill="#F1F1F1" height="93.6844" id="PlayerMoveState" rx="1" ry="1" style="stroke:#181818;stroke-width:0.20000000000000004;" width="55.6" x="223.096" y="133.6"/><ellipse cx="229.096" cy="140" fill="#ADD1B2" rx="4.4" ry="4.4" style="stroke:#181818;stroke-width:0.4000000000000001;"/><path d="M230.2023,138.35 Q230.2648,138.2625 230.3398,138.2188 Q230.4148,138.175 230.5023,138.175 Q230.6523,138.175 230.746,138.2813 Q230.8398,138.3813 230.8398,138.625 L230.8398,139.2063 Q230.8398,139.45 230.746,139.5563 Q230.6523,139.6625 230.5023,139.6625 Q230.3648,139.6625 230.2835,139.5813 Q230.2023,139.5063 230.1585,139.3 Q230.1398,139.1563 230.0648,139.0813 Q229.9335,138.9313 229.6898,138.8438 Q229.446,138.7563 229.196,138.7563 Q228.8898,138.7563 228.6335,138.8875 Q228.3835,139.0188 228.1835,139.3188 Q227.9898,139.6188 227.9898,140.0313 L227.9898,140.4688 Q227.9898,140.9625 228.346,141.2938 Q228.7023,141.6188 229.3398,141.6188 Q229.7148,141.6188 229.9773,141.5188 Q230.1335,141.4563 230.3023,141.2813 Q230.4085,141.175 230.4648,141.1438 Q230.5273,141.1125 230.6085,141.1125 Q230.7398,141.1125 230.8398,141.2188 Q230.946,141.3188 230.946,141.4563 Q230.946,141.5938 230.8085,141.7563 Q230.6085,141.9875 230.2898,142.1188 Q229.8585,142.3 229.3398,142.3 Q228.7335,142.3 228.2523,142.05 Q227.8585,141.85 227.5835,141.425 Q227.3085,140.9938 227.3085,140.4813 L227.3085,140.0188 Q227.3085,139.4875 227.5523,139.0313 Q227.8023,138.5688 228.2398,138.325 Q228.6773,138.075 229.171,138.075 Q229.4648,138.075 229.721,138.1438 Q229.9835,138.2063 230.2023,138.35 Z " fill="#000000"/><text fill="#000000" font-family="sans-serif" font-size="5.6" lengthAdjust="spacing" textLength="42.8" x="234.696" y="142.3188">PlayerMoveState</text><line style="stroke:#181818;stroke-width:0.20000000000000004;" x1="223.496" x2="278.296" y1="146.4" y2="146.4"/><text fill="#000000" font-family="sans-serif" font-size="5.6" lengthAdjust="spacing" textLength="34.4" x="225.496" y="154.043">isFacingRight</text><text fill="#000000" font-family="sans-serif" font-size="5.6" lengthAdjust="spacing" textLength="18.8" x="225.496" y="161.4914">velocity</text><text fill="#000000" font-family="sans-serif" font-size="5.6" lengthAdjust="spacing" textLength="16.8" x="225.496" y="168.9398">moveX</text><line style="stroke:#181818;stroke-width:0.20000000000000004;" x1="223.496" x2="278.296" y1="171.9453" y2="171.9453"/><text fill="#000000" font-family="sans-serif" font-size="5.6" lengthAdjust="spacing" textLength="30.8" x="225.496" y="179.5883">EnterState()</text><text fill="#000000" font-family="sans-serif" font-size="5.6" lengthAdjust="spacing" textLength="26" x="225.496" y="187.0367">ExitState()</text><text fill="#000000" font-family="sans-serif" font-size="5.6" lengthAdjust="spacing" textLength="35.6" x="225.496" y="194.4852">FixedUpdate()</text><text fill="#000000" font-family="sans-serif" font-size="5.6" lengthAdjust="spacing" textLength="22" x="225.496" y="201.9336">Update()</text><text fill="#000000" font-family="sans-serif" font-size="5.6" lengthAdjust="spacing" textLength="35.2" x="225.496" y="209.382">HandleMove()</text><text fill="#000000" font-family="sans-serif" font-size="5.6" lengthAdjust="spacing" textLength="47.2" x="225.496" y="216.8305">CalculateVelocity()</text><text fill="#000000" font-family="sans-serif" font-size="5.6" lengthAdjust="spacing" textLength="30.4" x="225.496" y="224.2789">NotMoving()</text></g><!--link BaseState to StateMachine--><g id="link_BaseState_StateMachine"><path codeLine="11" d="M80.28,33.188 C60.752,39.78 32.28,52.84 19.296,75.6 C2.4,105.216 28.5321,132.8001 56.7321,153.0961 " fill="none" id="BaseState-to-StateMachine" style="stroke:#181818;stroke-width:0.4000000000000001;"/><polygon fill="#181818" points="60.628,155.9,59.6147,153.1994,56.7321,153.0961,57.7454,155.7967,60.628,155.9" style="stroke:#181818;stroke-width:0.4000000000000001;"/></g><!--reverse link BaseState to PlayerActionState--><g id="link_BaseState_PlayerActionState"><path d="M79.5365,57.5554 C73.9645,65.5194 72.02,68.3 66.928,75.576 " fill="none" id="BaseState-backto-PlayerActionState" style="stroke:#181818;stroke-width:0.4000000000000001;"/><polygon fill="none" points="83.664,51.656,77.57,56.1796,81.5029,58.9313,83.664,51.656" style="stroke:#181818;stroke-width:0.4000000000000001;"/></g><!--reverse link PlayerActionState to StateMachine--><g id="link_PlayerActionState_StateMachine"><path codeLine="26" d="M66.1693,113.9312 C72.9893,127.0552 80.372,141.264 88.02,155.984 " fill="none" id="PlayerActionState-backto-StateMachine" style="stroke:#181818;stroke-width:0.4000000000000001;"/><polygon fill="#181818" points="63.956,109.672,63.6429,112.5394,66.1693,113.9312,66.4824,111.0638,63.956,109.672" style="stroke:#181818;stroke-width:0.4000000000000001;"/></g><!--reverse link BaseState to PlayerPrimaryMovementState--><g id="link_BaseState_PlayerPrimaryMovementState"><path d="M127.3953,39.1541 C150.7273,49.1781 182.952,63.016 212.14,75.552 " fill="none" id="BaseState-backto-PlayerPrimaryMovementState" style="stroke:#181818;stroke-width:0.4000000000000001;"/><polygon fill="none" points="120.78,36.312,126.448,41.3592,128.3427,36.949,120.78,36.312" style="stroke:#181818;stroke-width:0.4000000000000001;"/></g><!--reverse link PlayerPrimaryMovementState to StateMachine--><g id="link_PlayerPrimaryMovementState_StateMachine"><path codeLine="31" d="M217.9211,112.0754 C195.2331,125.1994 167.456,141.264 142.012,155.984 " fill="none" id="PlayerPrimaryMovementState-backto-StateMachine" style="stroke:#181818;stroke-width:0.4000000000000001;"/><polygon fill="#181818" points="222.076,109.672,219.1974,109.4887,217.9211,112.0754,220.7997,112.2587,222.076,109.672" style="stroke:#181818;stroke-width:0.4000000000000001;"/></g><!--reverse link BaseState to PlayerSecondaryMovementState--><g id="link_BaseState_PlayerSecondaryMovementState"><path d="M121.4555,57.5554 C127.0275,65.5194 128.972,68.3 134.064,75.576 " fill="none" id="BaseState-backto-PlayerSecondaryMovementState" style="stroke:#181818;stroke-width:0.4000000000000001;"/><polygon fill="none" points="117.328,51.656,119.4891,58.9313,123.422,56.1796,117.328,51.656" style="stroke:#181818;stroke-width:0.4000000000000001;"/></g><!--reverse link PlayerSecondaryMovementState to StateMachine--><g id="link_PlayerSecondaryMovementState_StateMachine"><path codeLine="37" d="M134.8227,113.9312 C128.0027,127.0552 120.62,141.264 112.972,155.984 " fill="none" id="PlayerSecondaryMovementState-backto-StateMachine" style="stroke:#181818;stroke-width:0.4000000000000001;"/><polygon fill="#181818" points="137.036,109.672,134.5096,111.0638,134.8227,113.9312,137.3491,112.5394,137.036,109.672" style="stroke:#181818;stroke-width:0.4000000000000001;"/></g><!--reverse link PlayerPrimaryMovementState to PlayerMoveState--><g id="link_PlayerPrimaryMovementState_PlayerMoveState"><path d="M250.896,116.872 C250.896,123.78 250.896,124.968 250.896,133.512 " fill="none" id="PlayerPrimaryMovementState-backto-PlayerMoveState" style="stroke:#181818;stroke-width:0.4000000000000001;"/><polygon fill="none" points="250.896,109.672,248.496,116.872,253.296,116.872,250.896,109.672" style="stroke:#181818;stroke-width:0.4000000000000001;"/></g><!--SRC=[bLR1Zfim4Btp5RxHhfJcZgfMkzb6JRMfegvQzUerayIjCGXCbFJhYqE0iJsEafkPzmQ_UOp7f7jZgYQRpol5jMaBzK6KnLmetZIpNF9TpOiaIQKsK6-v0BPwvWNV0NzJaAJeWMLipOzVWIkpzu55MzUW3GtQQ8-yU-zZBsK3CUnPGXTCpahPg-46rbpifOQFdnaS3UYyOK-yWJFqAS4CzZ1hgzc4kc36DZKSPDas97WfXiHMMXh9bVndfVbvUwvt_NwJxad2kEgeNwpR0zC1Zj9GyPzL7WQNyWZvY5mst2X-WlfH65dgdXXubOISx997GhXEWl0mcxaKHyccbWMlJ-lo0CNWQbGIIVQqHJY4I98PgdNale8eTNwpu0ZTannb4Q8ZN49sIjYyoXMuYkDM96aajJkoN7TFbcsF9UbFR2TQ_x0NaPunKPvA0ukojQVYAdDizckaNlotjgXk8YxgiXLs_E0ohVYRVVHJCYQR9HTIxtx8tTuG-05KAQGv4L3HhNyJSMTa430Q727gJeeGlm8vhH322wv4gxhrhqj99EjxQRh7pX0xfzo6Uf5DPp3bDPenmsV4v47Qep5S_FNxr7x- -zjpol8Cft3aE07xhOgngKCNN0jGllWbL-f-yLDMnlvqxtvgjrkelME5ILkxhW1o2gJAT_2mV0ox7KSGhc7k2NRkjVF7lh5RCDal2B-qdm3t6uxpQCCyHcYPI_0zSL4yhgQ-YJDx_zB4dZYtO2QBIfthQTpVlGjiVv32EJVSF1EBjYVaeMyJWlxrGxsV0iVvWc9eFg3eUFHGR6mtB7Fg5nH5rexHu3R6GBGV4NhjFaQqIFyb_m40]--></g></svg>