<?xml version="1.0" encoding="us-ascii" standalone="no"?><svg xmlns="http://www.w3.org/2000/svg" xmlns:xlink="http://www.w3.org/1999/xlink" contentStyleType="text/css" height="207.6px" preserveAspectRatio="none" style="width:702px;height:207px;background:#FFFFFF;" version="1.1" viewBox="0 0 702 207" width="702.4px" zoomAndPan="magnify"><defs/><g><!--class StateMachine--><g id="elem_StateMachine"><rect codeLine="10" fill="#F1F1F1" height="48.9938" id="StateMachine" rx="1" ry="1" style="stroke:#181818;stroke-width:0.20000000000000004;" width="93.6" x="146" y="144.8"/><ellipse cx="152" cy="151.2" fill="#ADD1B2" rx="4.4" ry="4.4" style="stroke:#181818;stroke-width:0.4000000000000001;"/><path d="M153.1063,149.55 Q153.1688,149.4625 153.2438,149.4188 Q153.3188,149.375 153.4063,149.375 Q153.5563,149.375 153.65,149.4813 Q153.7438,149.5813 153.7438,149.825 L153.7438,150.4063 Q153.7438,150.65 153.65,150.7563 Q153.5563,150.8625 153.4063,150.8625 Q153.2688,150.8625 153.1875,150.7813 Q153.1063,150.7063 153.0625,150.5 Q153.0438,150.3563 152.9688,150.2813 Q152.8375,150.1313 152.5938,150.0438 Q152.35,149.9563 152.1,149.9563 Q151.7938,149.9563 151.5375,150.0875 Q151.2875,150.2188 151.0875,150.5188 Q150.8938,150.8188 150.8938,151.2313 L150.8938,151.6688 Q150.8938,152.1625 151.25,152.4938 Q151.6063,152.8188 152.2438,152.8188 Q152.6188,152.8188 152.8813,152.7188 Q153.0375,152.6563 153.2063,152.4813 Q153.3125,152.375 153.3688,152.3438 Q153.4313,152.3125 153.5125,152.3125 Q153.6438,152.3125 153.7438,152.4188 Q153.85,152.5188 153.85,152.6563 Q153.85,152.7938 153.7125,152.9563 Q153.5125,153.1875 153.1938,153.3188 Q152.7625,153.5 152.2438,153.5 Q151.6375,153.5 151.1563,153.25 Q150.7625,153.05 150.4875,152.625 Q150.2125,152.1938 150.2125,151.6813 L150.2125,151.2188 Q150.2125,150.6875 150.4563,150.2313 Q150.7063,149.7688 151.1438,149.525 Q151.5813,149.275 152.075,149.275 Q152.3688,149.275 152.625,149.3438 Q152.8875,149.4063 153.1063,149.55 Z " fill="#000000"/><text fill="#000000" font-family="sans-serif" font-size="5.6" lengthAdjust="spacing" textLength="34.4" x="157.6" y="153.5188">StateMachine</text><rect fill="#FFFFFF" height="7.1844" style="stroke:#181818;stroke-width:0.4000000000000001;stroke-dasharray:2.0,2.0;" width="45.6" x="195.2" y="143.6"/><text fill="#000000" font-family="sans-serif" font-size="4.8" font-style="italic" lengthAdjust="spacing" textLength="44.8" x="195.6" y="149.1797">? extends BaseState</text><line style="stroke:#181818;stroke-width:0.20000000000000004;" x1="146.4" x2="239.2" y1="157.6" y2="157.6"/><text fill="#000000" font-family="sans-serif" font-size="5.6" lengthAdjust="spacing" textLength="35.2" x="148.4" y="165.243">PreviousState</text><text fill="#000000" font-family="sans-serif" font-size="5.6" lengthAdjust="spacing" textLength="32.4" x="148.4" y="172.6914">CurrentState</text><line style="stroke:#181818;stroke-width:0.20000000000000004;" x1="146.4" x2="239.2" y1="175.6969" y2="175.6969"/><text fill="#000000" font-family="sans-serif" font-size="5.6" lengthAdjust="spacing" textLength="23.6" x="148.4" y="183.3398">Initialize()</text><text fill="#000000" font-family="sans-serif" font-size="5.6" lengthAdjust="spacing" textLength="37.2" x="148.4" y="190.7883">ChangeState()</text></g><!--class BaseState--><g id="elem_BaseState"><rect codeLine="17" fill="#F1F1F1" height="48.9938" id="BaseState" rx="1" ry="1" style="stroke:#181818;stroke-width:0.20000000000000004;" width="40.4" x="223" y="2.8"/><ellipse cx="229.72" cy="9.2" fill="#ADD1B2" rx="4.4" ry="4.4" style="stroke:#181818;stroke-width:0.4000000000000001;"/><path d="M230.8263,7.55 Q230.8888,7.4625 230.9638,7.4188 Q231.0388,7.375 231.1263,7.375 Q231.2763,7.375 231.37,7.4813 Q231.4638,7.5813 231.4638,7.825 L231.4638,8.4063 Q231.4638,8.65 231.37,8.7563 Q231.2763,8.8625 231.1263,8.8625 Q230.9888,8.8625 230.9075,8.7813 Q230.8263,8.7063 230.7825,8.5 Q230.7638,8.3563 230.6888,8.2813 Q230.5575,8.1313 230.3138,8.0438 Q230.07,7.9563 229.82,7.9563 Q229.5138,7.9563 229.2575,8.0875 Q229.0075,8.2188 228.8075,8.5188 Q228.6138,8.8188 228.6138,9.2313 L228.6138,9.6688 Q228.6138,10.1625 228.97,10.4938 Q229.3263,10.8188 229.9638,10.8188 Q230.3388,10.8188 230.6013,10.7188 Q230.7575,10.6563 230.9263,10.4813 Q231.0325,10.375 231.0888,10.3438 Q231.1513,10.3125 231.2325,10.3125 Q231.3638,10.3125 231.4638,10.4188 Q231.57,10.5188 231.57,10.6563 Q231.57,10.7938 231.4325,10.9563 Q231.2325,11.1875 230.9138,11.3188 Q230.4825,11.5 229.9638,11.5 Q229.3575,11.5 228.8763,11.25 Q228.4825,11.05 228.2075,10.625 Q227.9325,10.1938 227.9325,9.6813 L227.9325,9.2188 Q227.9325,8.6875 228.1763,8.2313 Q228.4263,7.7688 228.8638,7.525 Q229.3013,7.275 229.795,7.275 Q230.0888,7.275 230.345,7.3438 Q230.6075,7.4063 230.8263,7.55 Z " fill="#000000"/><text fill="#000000" font-family="sans-serif" font-size="5.6" lengthAdjust="spacing" textLength="26" x="235.48" y="11.5188">BaseState</text><line style="stroke:#181818;stroke-width:0.20000000000000004;" x1="223.4" x2="263" y1="15.6" y2="15.6"/><line style="stroke:#181818;stroke-width:0.20000000000000004;" x1="223.4" x2="263" y1="18.8" y2="18.8"/><text fill="#000000" font-family="sans-serif" font-size="5.6" lengthAdjust="spacing" textLength="30.8" x="225.4" y="26.443">EnterState()</text><text fill="#000000" font-family="sans-serif" font-size="5.6" lengthAdjust="spacing" textLength="26" x="225.4" y="33.8914">ExitState()</text><text fill="#000000" font-family="sans-serif" font-size="5.6" lengthAdjust="spacing" textLength="22" x="225.4" y="41.3398">Update()</text><text fill="#000000" font-family="sans-serif" font-size="5.6" lengthAdjust="spacing" textLength="35.6" x="225.4" y="48.7883">FixedUpdate()</text></g><!--class PlayerActionState--><g id="elem_PlayerActionState"><rect codeLine="23" fill="#F1F1F1" height="34.0969" id="PlayerActionState" rx="1" ry="1" style="stroke:#181818;stroke-width:0.20000000000000004;" width="57.6" x="100.4" y="75.6"/><ellipse cx="106.4" cy="82" fill="#ADD1B2" rx="4.4" ry="4.4" style="stroke:#181818;stroke-width:0.4000000000000001;"/><path d="M107.5063,80.35 Q107.5688,80.2625 107.6438,80.2188 Q107.7188,80.175 107.8063,80.175 Q107.9563,80.175 108.05,80.2813 Q108.1438,80.3813 108.1438,80.625 L108.1438,81.2063 Q108.1438,81.45 108.05,81.5563 Q107.9563,81.6625 107.8063,81.6625 Q107.6688,81.6625 107.5875,81.5813 Q107.5063,81.5063 107.4625,81.3 Q107.4438,81.1563 107.3688,81.0813 Q107.2375,80.9313 106.9938,80.8438 Q106.75,80.7563 106.5,80.7563 Q106.1938,80.7563 105.9375,80.8875 Q105.6875,81.0188 105.4875,81.3188 Q105.2938,81.6188 105.2938,82.0313 L105.2938,82.4688 Q105.2938,82.9625 105.65,83.2938 Q106.0063,83.6188 106.6438,83.6188 Q107.0188,83.6188 107.2813,83.5188 Q107.4375,83.4563 107.6063,83.2813 Q107.7125,83.175 107.7688,83.1438 Q107.8313,83.1125 107.9125,83.1125 Q108.0438,83.1125 108.1438,83.2188 Q108.25,83.3188 108.25,83.4563 Q108.25,83.5938 108.1125,83.7563 Q107.9125,83.9875 107.5938,84.1188 Q107.1625,84.3 106.6438,84.3 Q106.0375,84.3 105.5563,84.05 Q105.1625,83.85 104.8875,83.425 Q104.6125,82.9938 104.6125,82.4813 L104.6125,82.0188 Q104.6125,81.4875 104.8563,81.0313 Q105.1063,80.5688 105.5438,80.325 Q105.9813,80.075 106.475,80.075 Q106.7688,80.075 107.025,80.1438 Q107.2875,80.2063 107.5063,80.35 Z " fill="#000000"/><text fill="#000000" font-family="sans-serif" font-size="5.6" lengthAdjust="spacing" textLength="44.8" x="112" y="84.3188">PlayerActionState</text><line style="stroke:#181818;stroke-width:0.20000000000000004;" x1="100.8" x2="157.6" y1="88.4" y2="88.4"/><text fill="#000000" font-family="sans-serif" font-size="5.6" lengthAdjust="spacing" textLength="16" x="102.8" y="96.043">Player</text><text fill="#000000" font-family="sans-serif" font-size="5.6" lengthAdjust="spacing" textLength="34.4" x="102.8" y="103.4914">StateMachine</text><line style="stroke:#181818;stroke-width:0.20000000000000004;" x1="100.8" x2="157.6" y1="106.4969" y2="106.4969"/></g><!--class PlayerPrimaryMovementState--><g id="elem_PlayerPrimaryMovementState"><rect codeLine="28" fill="#F1F1F1" height="34.0969" id="PlayerPrimaryMovementState" rx="1" ry="1" style="stroke:#181818;stroke-width:0.20000000000000004;" width="87.2" x="226" y="75.6"/><ellipse cx="232" cy="82" fill="#ADD1B2" rx="4.4" ry="4.4" style="stroke:#181818;stroke-width:0.4000000000000001;"/><path d="M233.1063,80.35 Q233.1688,80.2625 233.2438,80.2188 Q233.3188,80.175 233.4063,80.175 Q233.5563,80.175 233.65,80.2813 Q233.7438,80.3813 233.7438,80.625 L233.7438,81.2063 Q233.7438,81.45 233.65,81.5563 Q233.5563,81.6625 233.4063,81.6625 Q233.2688,81.6625 233.1875,81.5813 Q233.1063,81.5063 233.0625,81.3 Q233.0438,81.1563 232.9688,81.0813 Q232.8375,80.9313 232.5938,80.8438 Q232.35,80.7563 232.1,80.7563 Q231.7938,80.7563 231.5375,80.8875 Q231.2875,81.0188 231.0875,81.3188 Q230.8938,81.6188 230.8938,82.0313 L230.8938,82.4688 Q230.8938,82.9625 231.25,83.2938 Q231.6063,83.6188 232.2438,83.6188 Q232.6188,83.6188 232.8813,83.5188 Q233.0375,83.4563 233.2063,83.2813 Q233.3125,83.175 233.3688,83.1438 Q233.4313,83.1125 233.5125,83.1125 Q233.6438,83.1125 233.7438,83.2188 Q233.85,83.3188 233.85,83.4563 Q233.85,83.5938 233.7125,83.7563 Q233.5125,83.9875 233.1938,84.1188 Q232.7625,84.3 232.2438,84.3 Q231.6375,84.3 231.1563,84.05 Q230.7625,83.85 230.4875,83.425 Q230.2125,82.9938 230.2125,82.4813 L230.2125,82.0188 Q230.2125,81.4875 230.4563,81.0313 Q230.7063,80.5688 231.1438,80.325 Q231.5813,80.075 232.075,80.075 Q232.3688,80.075 232.625,80.1438 Q232.8875,80.2063 233.1063,80.35 Z " fill="#000000"/><text fill="#000000" font-family="sans-serif" font-size="5.6" lengthAdjust="spacing" textLength="74.4" x="237.6" y="84.3188">PlayerPrimaryMovementState</text><line style="stroke:#181818;stroke-width:0.20000000000000004;" x1="226.4" x2="312.8" y1="88.4" y2="88.4"/><text fill="#000000" font-family="sans-serif" font-size="5.6" lengthAdjust="spacing" textLength="16" x="228.4" y="96.043">Player</text><text fill="#000000" font-family="sans-serif" font-size="5.6" lengthAdjust="spacing" textLength="34.4" x="228.4" y="103.4914">StateMachine</text><line style="stroke:#181818;stroke-width:0.20000000000000004;" x1="226.4" x2="312.8" y1="106.4969" y2="106.4969"/></g><!--class PlayerSecondaryMovementState--><g id="elem_PlayerSecondaryMovementState"><rect codeLine="34" fill="#F1F1F1" height="34.0969" id="PlayerSecondaryMovementState" rx="1" ry="1" style="stroke:#181818;stroke-width:0.20000000000000004;" width="95.2" x="433.2" y="75.6"/><ellipse cx="439.2" cy="82" fill="#ADD1B2" rx="4.4" ry="4.4" style="stroke:#181818;stroke-width:0.4000000000000001;"/><path d="M440.3063,80.35 Q440.3688,80.2625 440.4438,80.2188 Q440.5188,80.175 440.6063,80.175 Q440.7563,80.175 440.85,80.2813 Q440.9438,80.3813 440.9438,80.625 L440.9438,81.2063 Q440.9438,81.45 440.85,81.5563 Q440.7563,81.6625 440.6063,81.6625 Q440.4688,81.6625 440.3875,81.5813 Q440.3063,81.5063 440.2625,81.3 Q440.2438,81.1563 440.1688,81.0813 Q440.0375,80.9313 439.7938,80.8438 Q439.55,80.7563 439.3,80.7563 Q438.9938,80.7563 438.7375,80.8875 Q438.4875,81.0188 438.2875,81.3188 Q438.0938,81.6188 438.0938,82.0313 L438.0938,82.4688 Q438.0938,82.9625 438.45,83.2938 Q438.8063,83.6188 439.4438,83.6188 Q439.8188,83.6188 440.0813,83.5188 Q440.2375,83.4563 440.4063,83.2813 Q440.5125,83.175 440.5688,83.1438 Q440.6313,83.1125 440.7125,83.1125 Q440.8438,83.1125 440.9438,83.2188 Q441.05,83.3188 441.05,83.4563 Q441.05,83.5938 440.9125,83.7563 Q440.7125,83.9875 440.3938,84.1188 Q439.9625,84.3 439.4438,84.3 Q438.8375,84.3 438.3563,84.05 Q437.9625,83.85 437.6875,83.425 Q437.4125,82.9938 437.4125,82.4813 L437.4125,82.0188 Q437.4125,81.4875 437.6563,81.0313 Q437.9063,80.5688 438.3438,80.325 Q438.7813,80.075 439.275,80.075 Q439.5688,80.075 439.825,80.1438 Q440.0875,80.2063 440.3063,80.35 Z " fill="#000000"/><text fill="#000000" font-family="sans-serif" font-size="5.6" lengthAdjust="spacing" textLength="82.4" x="444.8" y="84.3188">PlayerSecondaryMovementState</text><line style="stroke:#181818;stroke-width:0.20000000000000004;" x1="433.6" x2="528" y1="88.4" y2="88.4"/><text fill="#000000" font-family="sans-serif" font-size="5.6" lengthAdjust="spacing" textLength="16" x="435.6" y="96.043">Player</text><text fill="#000000" font-family="sans-serif" font-size="5.6" lengthAdjust="spacing" textLength="34.4" x="435.6" y="103.4914">StateMachine</text><line style="stroke:#181818;stroke-width:0.20000000000000004;" x1="433.6" x2="528" y1="106.4969" y2="106.4969"/></g><!--class PlayerPrimaryIdleState--><g id="elem_PlayerPrimaryIdleState"><rect codeLine="40" fill="#F1F1F1" height="26.6484" id="PlayerPrimaryIdleState" rx="1" ry="1" style="stroke:#181818;stroke-width:0.20000000000000004;" width="70" x="323.4" y="155.8"/><ellipse cx="329.4" cy="162.2" fill="#ADD1B2" rx="4.4" ry="4.4" style="stroke:#181818;stroke-width:0.4000000000000001;"/><path d="M330.5063,160.55 Q330.5688,160.4625 330.6438,160.4188 Q330.7188,160.375 330.8063,160.375 Q330.9563,160.375 331.05,160.4813 Q331.1438,160.5813 331.1438,160.825 L331.1438,161.4063 Q331.1438,161.65 331.05,161.7563 Q330.9563,161.8625 330.8063,161.8625 Q330.6688,161.8625 330.5875,161.7813 Q330.5063,161.7063 330.4625,161.5 Q330.4438,161.3563 330.3688,161.2813 Q330.2375,161.1313 329.9938,161.0438 Q329.75,160.9563 329.5,160.9563 Q329.1938,160.9563 328.9375,161.0875 Q328.6875,161.2188 328.4875,161.5188 Q328.2938,161.8188 328.2938,162.2313 L328.2938,162.6688 Q328.2938,163.1625 328.65,163.4938 Q329.0063,163.8188 329.6438,163.8188 Q330.0188,163.8188 330.2813,163.7188 Q330.4375,163.6563 330.6063,163.4813 Q330.7125,163.375 330.7688,163.3438 Q330.8313,163.3125 330.9125,163.3125 Q331.0438,163.3125 331.1438,163.4188 Q331.25,163.5188 331.25,163.6563 Q331.25,163.7938 331.1125,163.9563 Q330.9125,164.1875 330.5938,164.3188 Q330.1625,164.5 329.6438,164.5 Q329.0375,164.5 328.5563,164.25 Q328.1625,164.05 327.8875,163.625 Q327.6125,163.1938 327.6125,162.6813 L327.6125,162.2188 Q327.6125,161.6875 327.8563,161.2313 Q328.1063,160.7688 328.5438,160.525 Q328.9813,160.275 329.475,160.275 Q329.7688,160.275 330.025,160.3438 Q330.2875,160.4063 330.5063,160.55 Z " fill="#000000"/><text fill="#000000" font-family="sans-serif" font-size="5.6" lengthAdjust="spacing" textLength="57.2" x="335" y="164.5188">PlayerPrimaryIdleState</text><line style="stroke:#181818;stroke-width:0.20000000000000004;" x1="323.8" x2="393" y1="168.6" y2="168.6"/><line style="stroke:#181818;stroke-width:0.20000000000000004;" x1="323.8" x2="393" y1="171.8" y2="171.8"/><text fill="#000000" font-family="sans-serif" font-size="5.6" lengthAdjust="spacing" textLength="35.2" x="325.8" y="179.443">HandleMove()</text></g><!--class PlayerSecondaryIdleState--><g id="elem_PlayerSecondaryIdleState"><rect codeLine="42" fill="#F1F1F1" height="48.9938" id="PlayerSecondaryIdleState" rx="1" ry="1" style="stroke:#181818;stroke-width:0.20000000000000004;" width="78" x="484.2" y="144.8"/><ellipse cx="490.2" cy="151.2" fill="#ADD1B2" rx="4.4" ry="4.4" style="stroke:#181818;stroke-width:0.4000000000000001;"/><path d="M491.3063,149.55 Q491.3688,149.4625 491.4438,149.4188 Q491.5188,149.375 491.6063,149.375 Q491.7563,149.375 491.85,149.4813 Q491.9438,149.5813 491.9438,149.825 L491.9438,150.4063 Q491.9438,150.65 491.85,150.7563 Q491.7563,150.8625 491.6063,150.8625 Q491.4688,150.8625 491.3875,150.7813 Q491.3063,150.7063 491.2625,150.5 Q491.2438,150.3563 491.1688,150.2813 Q491.0375,150.1313 490.7938,150.0438 Q490.55,149.9563 490.3,149.9563 Q489.9938,149.9563 489.7375,150.0875 Q489.4875,150.2188 489.2875,150.5188 Q489.0938,150.8188 489.0938,151.2313 L489.0938,151.6688 Q489.0938,152.1625 489.45,152.4938 Q489.8063,152.8188 490.4438,152.8188 Q490.8188,152.8188 491.0813,152.7188 Q491.2375,152.6563 491.4063,152.4813 Q491.5125,152.375 491.5688,152.3438 Q491.6313,152.3125 491.7125,152.3125 Q491.8438,152.3125 491.9438,152.4188 Q492.05,152.5188 492.05,152.6563 Q492.05,152.7938 491.9125,152.9563 Q491.7125,153.1875 491.3938,153.3188 Q490.9625,153.5 490.4438,153.5 Q489.8375,153.5 489.3563,153.25 Q488.9625,153.05 488.6875,152.625 Q488.4125,152.1938 488.4125,151.6813 L488.4125,151.2188 Q488.4125,150.6875 488.6563,150.2313 Q488.9063,149.7688 489.3438,149.525 Q489.7813,149.275 490.275,149.275 Q490.5688,149.275 490.825,149.3438 Q491.0875,149.4063 491.3063,149.55 Z " fill="#000000"/><text fill="#000000" font-family="sans-serif" font-size="5.6" lengthAdjust="spacing" textLength="65.2" x="495.8" y="153.5188">PlayerSecondaryIdleState</text><line style="stroke:#181818;stroke-width:0.20000000000000004;" x1="484.6" x2="561.8" y1="157.6" y2="157.6"/><text fill="#000000" font-family="sans-serif" font-size="5.6" lengthAdjust="spacing" textLength="37.2" x="486.6" y="165.243">coyoteCounter</text><line style="stroke:#181818;stroke-width:0.20000000000000004;" x1="484.6" x2="561.8" y1="168.2484" y2="168.2484"/><text fill="#000000" font-family="sans-serif" font-size="5.6" lengthAdjust="spacing" textLength="22" x="486.6" y="175.8914">Update()</text><text fill="#000000" font-family="sans-serif" font-size="5.6" lengthAdjust="spacing" textLength="34.8" x="486.6" y="183.3398">HandleJump()</text><text fill="#000000" font-family="sans-serif" font-size="5.6" lengthAdjust="spacing" textLength="40" x="486.6" y="190.7883">HandleCrouch()</text></g><!--class PlayerMoveState--><g id="elem_PlayerMoveState"><rect codeLine="47" fill="#F1F1F1" height="26.6484" id="PlayerMoveState" rx="1" ry="1" style="stroke:#181818;stroke-width:0.20000000000000004;" width="55.6" x="253.8" y="155.8"/><ellipse cx="259.8" cy="162.2" fill="#ADD1B2" rx="4.4" ry="4.4" style="stroke:#181818;stroke-width:0.4000000000000001;"/><path d="M260.9063,160.55 Q260.9688,160.4625 261.0438,160.4188 Q261.1188,160.375 261.2063,160.375 Q261.3563,160.375 261.45,160.4813 Q261.5438,160.5813 261.5438,160.825 L261.5438,161.4063 Q261.5438,161.65 261.45,161.7563 Q261.3563,161.8625 261.2063,161.8625 Q261.0688,161.8625 260.9875,161.7813 Q260.9063,161.7063 260.8625,161.5 Q260.8438,161.3563 260.7688,161.2813 Q260.6375,161.1313 260.3938,161.0438 Q260.15,160.9563 259.9,160.9563 Q259.5938,160.9563 259.3375,161.0875 Q259.0875,161.2188 258.8875,161.5188 Q258.6938,161.8188 258.6938,162.2313 L258.6938,162.6688 Q258.6938,163.1625 259.05,163.4938 Q259.4063,163.8188 260.0438,163.8188 Q260.4188,163.8188 260.6813,163.7188 Q260.8375,163.6563 261.0063,163.4813 Q261.1125,163.375 261.1688,163.3438 Q261.2313,163.3125 261.3125,163.3125 Q261.4438,163.3125 261.5438,163.4188 Q261.65,163.5188 261.65,163.6563 Q261.65,163.7938 261.5125,163.9563 Q261.3125,164.1875 260.9938,164.3188 Q260.5625,164.5 260.0438,164.5 Q259.4375,164.5 258.9563,164.25 Q258.5625,164.05 258.2875,163.625 Q258.0125,163.1938 258.0125,162.6813 L258.0125,162.2188 Q258.0125,161.6875 258.2563,161.2313 Q258.5063,160.7688 258.9438,160.525 Q259.3813,160.275 259.875,160.275 Q260.1688,160.275 260.425,160.3438 Q260.6875,160.4063 260.9063,160.55 Z " fill="#000000"/><text fill="#000000" font-family="sans-serif" font-size="5.6" lengthAdjust="spacing" textLength="42.8" x="265.4" y="164.5188">PlayerMoveState</text><line style="stroke:#181818;stroke-width:0.20000000000000004;" x1="254.2" x2="309" y1="168.6" y2="168.6"/><line style="stroke:#181818;stroke-width:0.20000000000000004;" x1="254.2" x2="309" y1="171.8" y2="171.8"/><text fill="#000000" font-family="sans-serif" font-size="5.6" lengthAdjust="spacing" textLength="35.2" x="256.2" y="179.443">HandleMove()</text></g><!--class PlayerListenState--><g id="elem_PlayerListenState"><rect codeLine="49" fill="#F1F1F1" height="26.6484" id="PlayerListenState" rx="1" ry="1" style="stroke:#181818;stroke-width:0.20000000000000004;" width="57.2" x="74.6" y="155.8"/><ellipse cx="80.6" cy="162.2" fill="#ADD1B2" rx="4.4" ry="4.4" style="stroke:#181818;stroke-width:0.4000000000000001;"/><path d="M81.7063,160.55 Q81.7688,160.4625 81.8438,160.4188 Q81.9188,160.375 82.0063,160.375 Q82.1563,160.375 82.25,160.4813 Q82.3438,160.5813 82.3438,160.825 L82.3438,161.4063 Q82.3438,161.65 82.25,161.7563 Q82.1563,161.8625 82.0063,161.8625 Q81.8688,161.8625 81.7875,161.7813 Q81.7063,161.7063 81.6625,161.5 Q81.6438,161.3563 81.5688,161.2813 Q81.4375,161.1313 81.1938,161.0438 Q80.95,160.9563 80.7,160.9563 Q80.3938,160.9563 80.1375,161.0875 Q79.8875,161.2188 79.6875,161.5188 Q79.4938,161.8188 79.4938,162.2313 L79.4938,162.6688 Q79.4938,163.1625 79.85,163.4938 Q80.2063,163.8188 80.8438,163.8188 Q81.2188,163.8188 81.4813,163.7188 Q81.6375,163.6563 81.8063,163.4813 Q81.9125,163.375 81.9688,163.3438 Q82.0313,163.3125 82.1125,163.3125 Q82.2438,163.3125 82.3438,163.4188 Q82.45,163.5188 82.45,163.6563 Q82.45,163.7938 82.3125,163.9563 Q82.1125,164.1875 81.7938,164.3188 Q81.3625,164.5 80.8438,164.5 Q80.2375,164.5 79.7563,164.25 Q79.3625,164.05 79.0875,163.625 Q78.8125,163.1938 78.8125,162.6813 L78.8125,162.2188 Q78.8125,161.6875 79.0563,161.2313 Q79.3063,160.7688 79.7438,160.525 Q80.1813,160.275 80.675,160.275 Q80.9688,160.275 81.225,160.3438 Q81.4875,160.4063 81.7063,160.55 Z " fill="#000000"/><text fill="#000000" font-family="sans-serif" font-size="5.6" lengthAdjust="spacing" textLength="44.4" x="86.2" y="164.5188">PlayerListenState</text><line style="stroke:#181818;stroke-width:0.20000000000000004;" x1="75" x2="131.4" y1="168.6" y2="168.6"/><line style="stroke:#181818;stroke-width:0.20000000000000004;" x1="75" x2="131.4" y1="171.8" y2="171.8"/><text fill="#000000" font-family="sans-serif" font-size="5.6" lengthAdjust="spacing" textLength="37.2" x="77" y="179.443">HandleAttack()</text></g><!--class PlayerJumpState--><g id="elem_PlayerJumpState"><rect codeLine="51" fill="#F1F1F1" height="48.9938" id="PlayerJumpState" rx="1" ry="1" style="stroke:#181818;stroke-width:0.20000000000000004;" width="57.2" x="576.2" y="144.8"/><ellipse cx="583.1" cy="151.2" fill="#ADD1B2" rx="4.4" ry="4.4" style="stroke:#181818;stroke-width:0.4000000000000001;"/><path d="M584.2063,149.55 Q584.2688,149.4625 584.3438,149.4188 Q584.4188,149.375 584.5063,149.375 Q584.6563,149.375 584.75,149.4813 Q584.8438,149.5813 584.8438,149.825 L584.8438,150.4063 Q584.8438,150.65 584.75,150.7563 Q584.6563,150.8625 584.5063,150.8625 Q584.3688,150.8625 584.2875,150.7813 Q584.2063,150.7063 584.1625,150.5 Q584.1438,150.3563 584.0688,150.2813 Q583.9375,150.1313 583.6938,150.0438 Q583.45,149.9563 583.2,149.9563 Q582.8938,149.9563 582.6375,150.0875 Q582.3875,150.2188 582.1875,150.5188 Q581.9938,150.8188 581.9938,151.2313 L581.9938,151.6688 Q581.9938,152.1625 582.35,152.4938 Q582.7063,152.8188 583.3438,152.8188 Q583.7188,152.8188 583.9813,152.7188 Q584.1375,152.6563 584.3063,152.4813 Q584.4125,152.375 584.4688,152.3438 Q584.5313,152.3125 584.6125,152.3125 Q584.7438,152.3125 584.8438,152.4188 Q584.95,152.5188 584.95,152.6563 Q584.95,152.7938 584.8125,152.9563 Q584.6125,153.1875 584.2938,153.3188 Q583.8625,153.5 583.3438,153.5 Q582.7375,153.5 582.2563,153.25 Q581.8625,153.05 581.5875,152.625 Q581.3125,152.1938 581.3125,151.6813 L581.3125,151.2188 Q581.3125,150.6875 581.5563,150.2313 Q581.8063,149.7688 582.2438,149.525 Q582.6813,149.275 583.175,149.275 Q583.4688,149.275 583.725,149.3438 Q583.9875,149.4063 584.2063,149.55 Z " fill="#000000"/><text fill="#000000" font-family="sans-serif" font-size="5.6" lengthAdjust="spacing" textLength="42.4" x="588.9" y="153.5188">PlayerJumpState</text><line style="stroke:#181818;stroke-width:0.20000000000000004;" x1="576.6" x2="633" y1="157.6" y2="157.6"/><line style="stroke:#181818;stroke-width:0.20000000000000004;" x1="576.6" x2="633" y1="160.8" y2="160.8"/><text fill="#000000" font-family="sans-serif" font-size="5.6" lengthAdjust="spacing" textLength="30.8" x="578.6" y="168.443">EnterState()</text><text fill="#000000" font-family="sans-serif" font-size="5.6" lengthAdjust="spacing" textLength="26" x="578.6" y="175.8914">ExitState()</text><text fill="#000000" font-family="sans-serif" font-size="5.6" lengthAdjust="spacing" textLength="22" x="578.6" y="183.3398">Update()</text><text fill="#000000" font-family="sans-serif" font-size="5.6" lengthAdjust="spacing" textLength="52.4" x="578.6" y="190.7883">HandleJumpCancel()</text></g><!--class PlayerFallState--><g id="elem_PlayerFallState"><rect codeLine="56" fill="#F1F1F1" height="71.3391" id="PlayerFallState" rx="1" ry="1" style="stroke:#181818;stroke-width:0.20000000000000004;" width="52.4" x="647.4" y="133.6"/><ellipse cx="653.94" cy="140" fill="#ADD1B2" rx="4.4" ry="4.4" style="stroke:#181818;stroke-width:0.4000000000000001;"/><path d="M655.0463,138.35 Q655.1088,138.2625 655.1838,138.2188 Q655.2588,138.175 655.3463,138.175 Q655.4963,138.175 655.59,138.2813 Q655.6838,138.3813 655.6838,138.625 L655.6838,139.2063 Q655.6838,139.45 655.59,139.5563 Q655.4963,139.6625 655.3463,139.6625 Q655.2088,139.6625 655.1275,139.5813 Q655.0463,139.5063 655.0025,139.3 Q654.9838,139.1563 654.9088,139.0813 Q654.7775,138.9313 654.5338,138.8438 Q654.29,138.7563 654.04,138.7563 Q653.7338,138.7563 653.4775,138.8875 Q653.2275,139.0188 653.0275,139.3188 Q652.8338,139.6188 652.8338,140.0313 L652.8338,140.4688 Q652.8338,140.9625 653.19,141.2938 Q653.5463,141.6188 654.1838,141.6188 Q654.5588,141.6188 654.8213,141.5188 Q654.9775,141.4563 655.1463,141.2813 Q655.2525,141.175 655.3088,141.1438 Q655.3713,141.1125 655.4525,141.1125 Q655.5838,141.1125 655.6838,141.2188 Q655.79,141.3188 655.79,141.4563 Q655.79,141.5938 655.6525,141.7563 Q655.4525,141.9875 655.1338,142.1188 Q654.7025,142.3 654.1838,142.3 Q653.5775,142.3 653.0963,142.05 Q652.7025,141.85 652.4275,141.425 Q652.1525,140.9938 652.1525,140.4813 L652.1525,140.0188 Q652.1525,139.4875 652.3963,139.0313 Q652.6463,138.5688 653.0838,138.325 Q653.5213,138.075 654.015,138.075 Q654.3088,138.075 654.565,138.1438 Q654.8275,138.2063 655.0463,138.35 Z " fill="#000000"/><text fill="#000000" font-family="sans-serif" font-size="5.6" lengthAdjust="spacing" textLength="38.4" x="659.66" y="142.3188">PlayerFallState</text><line style="stroke:#181818;stroke-width:0.20000000000000004;" x1="647.8" x2="699.4" y1="146.4" y2="146.4"/><text fill="#000000" font-family="sans-serif" font-size="5.6" lengthAdjust="spacing" textLength="47.6" x="649.8" y="154.043">jumpBufferCounter</text><text fill="#000000" font-family="sans-serif" font-size="5.6" lengthAdjust="spacing" textLength="23.6" x="649.8" y="161.4914">fallSpeed</text><line style="stroke:#181818;stroke-width:0.20000000000000004;" x1="647.8" x2="699.4" y1="164.4969" y2="164.4969"/><text fill="#000000" font-family="sans-serif" font-size="5.6" lengthAdjust="spacing" textLength="30.8" x="649.8" y="172.1398">EnterState()</text><text fill="#000000" font-family="sans-serif" font-size="5.6" lengthAdjust="spacing" textLength="26" x="649.8" y="179.5883">ExitState()</text><text fill="#000000" font-family="sans-serif" font-size="5.6" lengthAdjust="spacing" textLength="35.6" x="649.8" y="187.0367">FixedUpdate()</text><text fill="#000000" font-family="sans-serif" font-size="5.6" lengthAdjust="spacing" textLength="22" x="649.8" y="194.4852">Update()</text><text fill="#000000" font-family="sans-serif" font-size="5.6" lengthAdjust="spacing" textLength="34.8" x="649.8" y="201.9336">HandleJump()</text></g><!--class PlayerAttackState--><g id="elem_PlayerAttackState"><rect codeLine="64" fill="#F1F1F1" height="26.6484" id="PlayerAttackState" rx="1" ry="1" style="stroke:#181818;stroke-width:0.20000000000000004;" width="57.6" x="2.8" y="155.8"/><ellipse cx="8.8" cy="162.2" fill="#ADD1B2" rx="4.4" ry="4.4" style="stroke:#181818;stroke-width:0.4000000000000001;"/><path d="M9.9063,160.55 Q9.9688,160.4625 10.0438,160.4188 Q10.1188,160.375 10.2063,160.375 Q10.3563,160.375 10.45,160.4813 Q10.5438,160.5813 10.5438,160.825 L10.5438,161.4063 Q10.5438,161.65 10.45,161.7563 Q10.3563,161.8625 10.2063,161.8625 Q10.0688,161.8625 9.9875,161.7813 Q9.9063,161.7063 9.8625,161.5 Q9.8438,161.3563 9.7688,161.2813 Q9.6375,161.1313 9.3938,161.0438 Q9.15,160.9563 8.9,160.9563 Q8.5938,160.9563 8.3375,161.0875 Q8.0875,161.2188 7.8875,161.5188 Q7.6938,161.8188 7.6938,162.2313 L7.6938,162.6688 Q7.6938,163.1625 8.05,163.4938 Q8.4063,163.8188 9.0438,163.8188 Q9.4188,163.8188 9.6813,163.7188 Q9.8375,163.6563 10.0063,163.4813 Q10.1125,163.375 10.1688,163.3438 Q10.2313,163.3125 10.3125,163.3125 Q10.4438,163.3125 10.5438,163.4188 Q10.65,163.5188 10.65,163.6563 Q10.65,163.7938 10.5125,163.9563 Q10.3125,164.1875 9.9938,164.3188 Q9.5625,164.5 9.0438,164.5 Q8.4375,164.5 7.9563,164.25 Q7.5625,164.05 7.2875,163.625 Q7.0125,163.1938 7.0125,162.6813 L7.0125,162.2188 Q7.0125,161.6875 7.2563,161.2313 Q7.5063,160.7688 7.9438,160.525 Q8.3813,160.275 8.875,160.275 Q9.1688,160.275 9.425,160.3438 Q9.6875,160.4063 9.9063,160.55 Z " fill="#000000"/><text fill="#000000" font-family="sans-serif" font-size="5.6" lengthAdjust="spacing" textLength="44.8" x="14.4" y="164.5188">PlayerAttackState</text><line style="stroke:#181818;stroke-width:0.20000000000000004;" x1="3.2" x2="60" y1="168.6" y2="168.6"/><line style="stroke:#181818;stroke-width:0.20000000000000004;" x1="3.2" x2="60" y1="171.8" y2="171.8"/><text fill="#000000" font-family="sans-serif" font-size="5.6" lengthAdjust="spacing" textLength="30.8" x="5.2" y="179.443">EnterState()</text></g><!--class PlayerCrouchState--><g id="elem_PlayerCrouchState"><rect codeLine="66" fill="#F1F1F1" height="56.4422" id="PlayerCrouchState" rx="1" ry="1" style="stroke:#181818;stroke-width:0.20000000000000004;" width="62.4" x="407.6" y="141"/><ellipse cx="414.5" cy="147.4" fill="#ADD1B2" rx="4.4" ry="4.4" style="stroke:#181818;stroke-width:0.4000000000000001;"/><path d="M415.6063,145.75 Q415.6688,145.6625 415.7438,145.6188 Q415.8188,145.575 415.9063,145.575 Q416.0563,145.575 416.15,145.6813 Q416.2438,145.7813 416.2438,146.025 L416.2438,146.6063 Q416.2438,146.85 416.15,146.9563 Q416.0563,147.0625 415.9063,147.0625 Q415.7688,147.0625 415.6875,146.9813 Q415.6063,146.9063 415.5625,146.7 Q415.5438,146.5563 415.4688,146.4813 Q415.3375,146.3313 415.0938,146.2438 Q414.85,146.1563 414.6,146.1563 Q414.2938,146.1563 414.0375,146.2875 Q413.7875,146.4188 413.5875,146.7188 Q413.3938,147.0188 413.3938,147.4313 L413.3938,147.8688 Q413.3938,148.3625 413.75,148.6938 Q414.1063,149.0188 414.7438,149.0188 Q415.1188,149.0188 415.3813,148.9188 Q415.5375,148.8563 415.7063,148.6813 Q415.8125,148.575 415.8688,148.5438 Q415.9313,148.5125 416.0125,148.5125 Q416.1438,148.5125 416.2438,148.6188 Q416.35,148.7188 416.35,148.8563 Q416.35,148.9938 416.2125,149.1563 Q416.0125,149.3875 415.6938,149.5188 Q415.2625,149.7 414.7438,149.7 Q414.1375,149.7 413.6563,149.45 Q413.2625,149.25 412.9875,148.825 Q412.7125,148.3938 412.7125,147.8813 L412.7125,147.4188 Q412.7125,146.8875 412.9563,146.4313 Q413.2063,145.9688 413.6438,145.725 Q414.0813,145.475 414.575,145.475 Q414.8688,145.475 415.125,145.5438 Q415.3875,145.6063 415.6063,145.75 Z " fill="#000000"/><text fill="#000000" font-family="sans-serif" font-size="5.6" lengthAdjust="spacing" textLength="47.6" x="420.3" y="149.7188">PlayerCrouchState</text><line style="stroke:#181818;stroke-width:0.20000000000000004;" x1="408" x2="469.6" y1="153.8" y2="153.8"/><line style="stroke:#181818;stroke-width:0.20000000000000004;" x1="408" x2="469.6" y1="157" y2="157"/><text fill="#000000" font-family="sans-serif" font-size="5.6" lengthAdjust="spacing" textLength="30.8" x="410" y="164.643">EnterState()</text><text fill="#000000" font-family="sans-serif" font-size="5.6" lengthAdjust="spacing" textLength="26" x="410" y="172.0914">ExitState()</text><text fill="#000000" font-family="sans-serif" font-size="5.6" lengthAdjust="spacing" textLength="22" x="410" y="179.5398">Update()</text><text fill="#000000" font-family="sans-serif" font-size="5.6" lengthAdjust="spacing" textLength="57.6" x="410" y="186.9883">HandleCrouchCancel()</text><text fill="#000000" font-family="sans-serif" font-size="5.6" lengthAdjust="spacing" textLength="34.8" x="410" y="194.4367">HandleJump()</text></g><!--link BaseState to StateMachine--><g id="link_BaseState_StateMachine"><path codeLine="11" d="M229.768,51.712 C225.904,59.224 221.904,67.628 218.8,75.6 C209.904,98.456 203.8146,120.8872 199.2626,139.9552 " fill="none" id="BaseState-to-StateMachine" style="stroke:#181818;stroke-width:0.4000000000000001;"/><polygon fill="#181818" points="198.148,144.624,200.2615,142.6611,199.2626,139.9552,197.149,141.9181,198.148,144.624" style="stroke:#181818;stroke-width:0.4000000000000001;"/></g><!--reverse link BaseState to PlayerActionState--><g id="link_BaseState_PlayerActionState"><path d="M216.6877,42.6254 C198.6437,52.8494 178.3,64.376 158.036,75.86 " fill="none" id="BaseState-backto-PlayerActionState" style="stroke:#181818;stroke-width:0.4000000000000001;"/><polygon fill="none" points="222.952,39.076,215.5046,40.5373,217.8708,44.7135,222.952,39.076" style="stroke:#181818;stroke-width:0.4000000000000001;"/></g><!--reverse link PlayerActionState to StateMachine--><g id="link_PlayerActionState_StateMachine"><path codeLine="26" d="M146.2419,113.3125 C154.8739,123.5965 163.008,133.292 172.6,144.724 " fill="none" id="PlayerActionState-backto-StateMachine" style="stroke:#181818;stroke-width:0.4000000000000001;"/><polygon fill="#181818" points="143.156,109.636,143.4735,112.5029,146.2419,113.3125,145.9245,110.4456,143.156,109.636" style="stroke:#181818;stroke-width:0.4000000000000001;"/></g><!--reverse link BaseState to PlayerPrimaryMovementState--><g id="link_BaseState_PlayerPrimaryMovementState"><path d="M255.7539,58.3217 C259.0059,66.2857 259.832,68.3 262.808,75.576 " fill="none" id="BaseState-backto-PlayerPrimaryMovementState" style="stroke:#181818;stroke-width:0.4000000000000001;"/><polygon fill="none" points="253.032,51.656,253.532,59.229,257.9758,57.4144,253.032,51.656" style="stroke:#181818;stroke-width:0.4000000000000001;"/></g><!--reverse link PlayerPrimaryMovementState to StateMachine--><g id="link_PlayerPrimaryMovementState_StateMachine"><path codeLine="31" d="M249.3277,113.0077 C238.9077,123.2917 228.776,133.292 217.192,144.724 " fill="none" id="PlayerPrimaryMovementState-backto-StateMachine" style="stroke:#181818;stroke-width:0.4000000000000001;"/><polygon fill="#181818" points="252.744,109.636,249.9119,110.1831,249.3277,113.0077,252.1597,112.4607,252.744,109.636" style="stroke:#181818;stroke-width:0.4000000000000001;"/></g><!--reverse link BaseState to PlayerSecondaryMovementState--><g id="link_BaseState_PlayerSecondaryMovementState"><path d="M270.4039,34.9967 C307.7199,45.1407 381.284,65.144 433.148,79.244 " fill="none" id="BaseState-backto-PlayerSecondaryMovementState" style="stroke:#181818;stroke-width:0.4000000000000001;"/><polygon fill="none" points="263.456,33.108,269.7743,37.3127,271.0334,32.6808,263.456,33.108" style="stroke:#181818;stroke-width:0.4000000000000001;"/></g><!--reverse link PlayerSecondaryMovementState to StateMachine--><g id="link_PlayerSecondaryMovementState_StateMachine"><path codeLine="37" d="M428.3319,96.0103 C379.9439,99.9583 308.384,109.376 246.8,133.6 C239.404,136.508 231.96,140.512 225.06,144.776 " fill="none" id="PlayerSecondaryMovementState-backto-StateMachine" style="stroke:#181818;stroke-width:0.4000000000000001;"/><polygon fill="#181818" points="433.116,95.62,430.5938,94.2205,428.3319,96.0103,430.8541,97.4099,433.116,95.62" style="stroke:#181818;stroke-width:0.4000000000000001;"/></g><!--reverse link PlayerPrimaryMovementState to PlayerPrimaryIdleState--><g id="link_PlayerPrimaryMovementState_PlayerPrimaryIdleState"><path d="M294.5647,114.3099 C310.8007,128.1659 328.128,142.96 343.08,155.724 " fill="none" id="PlayerPrimaryMovementState-backto-PlayerPrimaryIdleState" style="stroke:#181818;stroke-width:0.4000000000000001;"/><polygon fill="none" points="289.088,109.636,293.0068,116.1355,296.1227,112.4843,289.088,109.636" style="stroke:#181818;stroke-width:0.4000000000000001;"/></g><!--reverse link PlayerSecondaryMovementState to PlayerSecondaryIdleState--><g id="link_PlayerSecondaryMovementState_PlayerSecondaryIdleState"><path d="M493.6187,115.9199 C499.3707,126.2039 503.34,133.292 509.732,144.724 " fill="none" id="PlayerSecondaryMovementState-backto-PlayerSecondaryIdleState" style="stroke:#181818;stroke-width:0.4000000000000001;"/><polygon fill="none" points="490.104,109.636,491.524,117.0914,495.7133,114.7483,490.104,109.636" style="stroke:#181818;stroke-width:0.4000000000000001;"/></g><!--reverse link PlayerPrimaryMovementState to PlayerMoveState--><g id="link_PlayerPrimaryMovementState_PlayerMoveState"><path d="M273.359,116.7472 C275.555,130.6032 277.508,142.96 279.528,155.724 " fill="none" id="PlayerPrimaryMovementState-backto-PlayerMoveState" style="stroke:#181818;stroke-width:0.4000000000000001;"/><polygon fill="none" points="272.232,109.636,270.9886,117.1229,275.7295,116.3716,272.232,109.636" style="stroke:#181818;stroke-width:0.4000000000000001;"/></g><!--reverse link PlayerActionState to PlayerListenState--><g id="link_PlayerActionState_PlayerListenState"><path d="M121.1585,116.446 C116.4025,130.302 112.064,142.96 107.684,155.724 " fill="none" id="PlayerActionState-backto-PlayerListenState" style="stroke:#181818;stroke-width:0.4000000000000001;"/><polygon fill="none" points="123.496,109.636,118.8885,115.6668,123.4285,117.2252,123.496,109.636" style="stroke:#181818;stroke-width:0.4000000000000001;"/></g><!--reverse link PlayerSecondaryMovementState to PlayerJumpState--><g id="link_PlayerSecondaryMovementState_PlayerJumpState"><path d="M531.5131,112.5464 C546.1971,119.0144 555.656,124.232 569.2,133.6 C573.848,136.812 578.428,140.664 582.68,144.624 " fill="none" id="PlayerSecondaryMovementState-backto-PlayerJumpState" style="stroke:#181818;stroke-width:0.4000000000000001;"/><polygon fill="none" points="524.924,109.644,530.5456,114.7427,532.4806,110.35,524.924,109.644" style="stroke:#181818;stroke-width:0.4000000000000001;"/></g><!--reverse link PlayerSecondaryMovementState to PlayerFallState--><g id="link_PlayerSecondaryMovementState_PlayerFallState"><path d="M535.6355,99.1038 C568.8395,104.2358 606.024,113.372 640.4,133.6 C642.788,135.004 645.116,136.636 647.352,138.404 " fill="none" id="PlayerSecondaryMovementState-backto-PlayerFallState" style="stroke:#181818;stroke-width:0.4000000000000001;"/><polygon fill="none" points="528.52,98.004,535.2689,101.4756,536.0021,96.7319,528.52,98.004" style="stroke:#181818;stroke-width:0.4000000000000001;"/></g><!--reverse link PlayerActionState to PlayerAttackState--><g id="link_PlayerActionState_PlayerAttackState"><path d="M95.511,113.482 C84.595,120.45 78.22,125.04 67.6,133.6 C59.228,140.348 50.592,148.736 43.876,155.632 " fill="none" id="PlayerActionState-backto-PlayerAttackState" style="stroke:#181818;stroke-width:0.4000000000000001;"/><polygon fill="none" points="101.58,109.608,94.2197,111.459,96.8024,115.505,101.58,109.608" style="stroke:#181818;stroke-width:0.4000000000000001;"/></g><!--reverse link PlayerSecondaryMovementState to PlayerCrouchState--><g id="link_PlayerSecondaryMovementState_PlayerCrouchState"><path d="M468.0939,115.9336 C463.0219,125.0856 460.084,130.384 454.268,140.88 " fill="none" id="PlayerSecondaryMovementState-backto-PlayerCrouchState" style="stroke:#181818;stroke-width:0.4000000000000001;"/><polygon fill="none" points="471.584,109.636,465.9947,114.7702,470.1931,117.0969,471.584,109.636" style="stroke:#181818;stroke-width:0.4000000000000001;"/></g><!--SRC=[bLR1Zfim4BtxAtnBknBD7LMjThDTDTL6YhJg1qnX4jmQWy2iadvz8I4mjiTfaXFCUsE_UHuFMHJMrcswNDOQZErA_IchocMceMsJNC6-WLA8XJ8McnraADVFKC8UuPT6iI0lCfKRE7n7qBRmWLNND6Wi3mxHC_BXeu-zLYt6i6U5VL2SbCet2nOta1NAuEUl4WyMJTxA9sZn17qHb24VagvEPjG5Kxbjy5rLNSk2Op4ijZRAAj3gxo3Dpol0xC_xpRfd2TDJJ_qsk7rXEi11MIx-iyx3u8iwO3uXuuPR3KTi7ZEhAdCc1bw9a9EEUIn4wsG83qdYKXmbsqQLq1mtrJkM5rUZabYofot2OKIop52j8_SDiyhaDmkEq3t9KHOZEiBzZ-onr7MkqHKSTq94CliB2wP_6yXzMx7cnFRXnOjeTYgpwbXPN5NTS2Ek4QS-ly8v2__HbVKjl5LJTLdXbJW8lzF1EUMATQ-gxPVZLYPNIOJSovAFraBsnrjqgFJkOvYJl3d4m6GQXQXt8XIQ3s859aFjwNu1hU_MFIUbydU_ybEtss7ZTWxbx8Rd6Z5dCAPk1mxgfgWxTaFy2kGqg3ElJyTxMtjGhbSANVBStdVRJDDOepn2O9MBUsQu8Bs7KwF4YQDl_MyX5hHKgSfQdofftRyl8pnyyCFhUvcaCuit9kIHCmb1Vw1owtFWD4P8Z4m24frk6ebDNKPbper2eiJPAHfyNIWGzc68ikCnf4KwJ_m3]--></g></svg>